<svg xmlns="http://www.w3.org/2000/svg" viewBox="0 0 48 48">
  <rect width="48" height="48" rx="11" fill="#17120D"/>
  <g transform="translate(3.5 -1.5) scale(0.86)">
    <g fill="none" stroke="#A8957E" stroke-width="2" stroke-linecap="round">
      <path d="M18 10 c -1.5 -2.5, 1.5 -4.5, 0 -7"/>
      <path d="M27 11 c 1.5 -2.5, -1.5 -4.5, 0 -7"/>
    </g>
    <path d="M7 20 C 7.5 33, 14 46, 24 46 C 34 46, 40.5 33, 41 20 Z" fill="#FBF5EA"/>
    <path d="M40 22 c 6.5 0.5, 6.5 12, -0.5 13" fill="none" stroke="#FBF5EA" stroke-width="2.6"/>
    <ellipse cx="24" cy="20" rx="17" ry="7" fill="#C2410C"/>
    <path d="M24 18.2 C 23 16.6, 20.6 16.2, 19.2 17.7 C 17.6 19.4, 18.8 21.2, 24 23.8 C 29.2 21.2, 30.4 19.4, 28.8 17.7 C 27.4 16.2, 25 16.6, 24 18.2 Z" fill="#FBF5EA"/>
  </g>
</svg>
